<svg width="94" height="126" viewBox="0 0 94 126" fill="none" xmlns="http://www.w3.org/2000/svg">
<path d="M16.6352 28.9277C18.4191 28.632 20.2797 29.8255 20.4767 31.6321C20.5533 32.3986 20.3453 33.154 19.9185 33.7562C19.634 34.1504 19.24 34.4898 18.7912 34.7198L18.9335 34.8402L29.9106 32.9789C31.7602 32.6723 33.6316 33.9314 33.752 35.7928C33.7739 36.1103 33.752 36.4059 33.6754 36.7016H34.5838C35.2623 36.7016 35.908 36.4278 36.3896 35.9461C36.8055 35.5191 37.0681 34.9826 37.1228 34.3913C37.1885 33.7234 36.9587 33.0555 36.4881 32.5299C35.9518 31.9387 35.1529 31.5883 34.3539 31.5883H23.2127C23.0595 31.5883 22.9063 31.5117 22.7968 31.3912L22.6764 31.2489C22.5561 31.1066 22.5232 30.9204 22.567 30.7452C22.6217 30.57 22.7531 30.4277 22.9282 30.373C23.3331 30.2416 23.6943 30.0335 23.9788 29.7379C24.4166 29.3109 24.6792 28.7306 24.723 28.0955C24.7668 27.4386 24.526 26.8035 24.0445 26.2999C23.4973 25.7196 22.7202 25.3801 21.9322 25.3801H19.0758C18.9335 25.3801 18.7912 25.3145 18.6927 25.2159L16.1865 22.7085L6.66504 24.3181L13.8226 29.4094L16.6352 28.9277Z" fill="#F6F6F6"/>
<path d="M25.0623 40.0958L42.4746 55.0195L29.429 39.3622L25.0623 40.0958Z" fill="#F6F6F6"/>
<path d="M84.2268 34.1395L76.8723 37.8184C73.4796 33.7015 68.3686 31.0737 62.6338 31.0409H87.335C87.335 21.4822 80.1446 13.6208 70.8748 12.5587L62.5135 0V13.5003C61.6051 13.8288 60.7077 14.2011 59.8649 14.65L50.1027 0V33.8767C53.9113 36.8987 56.3081 41.3002 56.3081 46.2054C56.3081 49.8187 55.0057 53.1472 52.8059 55.8626H52.795C52.4995 56.2349 52.1821 56.5852 51.8647 56.9247C51.7443 57.0451 51.6349 57.1874 51.5145 57.3079C51.4598 57.3626 51.3941 57.4174 51.3394 57.4721C50.9454 57.8444 50.5405 58.2057 50.1136 58.5561V58.578C47.3995 60.7788 44.0834 62.0817 40.4827 62.0817H40.4389C35.5469 62.0708 31.1582 59.6839 28.1376 55.8735H4.99057L12.8814 63.7679V80.6953L19.0867 71.3885V80.6953L25.2921 71.3885V80.6953L31.4975 71.3885V80.6953L37.6919 71.3885V80.6953L43.8973 71.3885V80.6953L50.1027 74.4871V86.9035H68.7188L56.3081 80.6953L64.2098 76.7426C65.8952 79.1296 68.6751 80.6953 71.8161 80.6953H87.335V62.0708L81.1296 74.4871L75.4058 63.0562C78.7437 59.8371 80.8779 55.3808 81.0749 50.4209C81.8191 49.753 82.4648 48.9756 82.9682 48.1106H84.2268L88.8781 52.764V48.1106L93.5294 52.764V43.4572H84.2268L80.5824 45.2857C80.3307 44.2236 79.9914 43.1944 79.5646 42.209C80.9764 41.3878 82.1583 40.2163 82.9792 38.8038H84.2378L88.8891 43.4572V38.8038L93.5403 43.4572V34.1504H84.2268V34.1395Z" fill="#F6F6F6"/>
<path d="M22.4904 23.7378C23.5848 23.7378 24.6464 24.1976 25.4016 24.9969C26.091 25.7305 26.4303 26.6612 26.3756 27.6138C26.3099 28.5007 25.9488 29.3328 25.3359 29.9459H34.9121C36.0284 29.9459 37.1009 30.4168 37.8561 31.2489C38.5456 32.0044 38.8739 32.9679 38.7754 33.9533C38.6879 34.7964 38.3267 35.5629 37.7248 36.176C37.0353 36.8658 36.116 37.249 35.1419 37.249H30.1076L31.2348 38.6067L43.7222 53.5961L43.8973 53.8042V31.435C43.8973 24.3728 38.1516 18.6245 31.0926 18.6245H14.7528L19.8638 23.7378H22.4904Z" fill="#F6F6F6"/>
<path d="M29.8996 102.013C27.4372 102.21 26.5398 102.561 26.3756 104.367C26.2552 105.583 26.1786 107.105 26.1786 109.93V125.631H23.0923L7.00431 106.678V115.251C7.00431 118.076 7.08092 119.871 7.2013 120.933C7.3983 122.663 8.41611 123.09 11.2726 123.288V125.368H0.393992V123.288C3.13005 123.014 3.75387 122.466 3.99464 121.098C4.22447 119.729 4.22447 118.087 4.22447 115.262V107.389C4.22447 104.258 4.14786 103.94 3.63348 103.36C2.81267 102.375 1.76202 102.134 0 102.013V99.9001H8.37234L23.3659 116.74V109.93C23.3659 107.116 23.2893 105.659 23.2127 104.444C23.0923 102.637 22.1183 102.21 19.0211 102.013V99.9001H29.8996V102.013Z" fill="#F6F6F6"/>
<path d="M61.3096 110.324C58.88 110.521 58.1795 110.948 56.9209 112.557C55.7061 114.123 54.6883 115.612 53.4407 117.255C55.9797 119.444 59.0004 122.696 60.7952 125.357L60.5544 125.981C56.6364 126.145 53.977 125.204 53.4297 124.733C52.8825 124.218 51.2737 122.97 49.8619 121.514C47.3557 124.371 44.2694 125.981 41.4896 125.981C35.6563 125.981 33.0406 122.105 33.0406 118.459C33.0406 115.054 34.923 113.685 38.5237 111.451C36.8383 109.886 36.0175 108.2 36.0175 106.01C36.0175 102.561 39.1037 99.3198 43.569 99.3198C47.8701 99.3198 50.5733 102.254 50.5733 105.189C50.5733 106.524 49.9823 107.773 48.9317 108.638C47.9576 109.426 46.6224 110.05 45.6484 110.63C46.6224 111.331 49.1287 113.214 51.7115 115.601C52.4119 114.583 53.0029 113.521 53.5173 112.546C54.2615 111.134 54.1411 110.554 51.4379 110.313V108.079H61.2986V110.324H61.3096ZM43.4158 121.787C45.528 121.787 47.29 121.01 48.3078 119.751C45.5718 117.244 43.6128 115.678 40.0887 112.853C38.6441 114.101 38.2501 115.317 38.2501 116.806C38.2501 120.068 41.0299 121.787 43.4158 121.787ZM43.1093 101.553C41.3473 101.553 40.5265 102.966 40.5265 104.488C40.5265 106.524 41.4677 107.575 43.9301 109.338C45.528 108.364 46.2832 107.148 46.2832 105.221C46.2722 103.075 45.1012 101.553 43.1093 101.553Z" fill="#F6F6F6"/>
<path d="M94 102.013C91.5376 102.21 90.6401 102.561 90.476 104.367C90.3556 105.583 90.279 107.105 90.279 109.93V125.631H87.1927L71.1047 106.678V115.251C71.1047 118.076 71.1813 119.871 71.3017 120.933C71.4987 122.663 72.5165 123.09 75.3729 123.288V125.368H64.4944V123.288C67.2304 123.014 67.8542 122.466 68.095 121.098C68.3248 119.729 68.3248 118.087 68.3248 115.262V107.389C68.3248 104.258 68.2482 103.94 67.7338 103.36C66.913 102.386 65.8514 102.145 64.0894 102.024V99.9111H72.4618L87.4554 116.751V109.94C87.4554 107.127 87.3787 105.67 87.3021 104.455C87.1817 102.648 86.2077 102.221 83.1105 102.024V99.9111H93.9891V102.013H94Z" fill="#F6F6F6"/>
</svg>
