<svg width="97" height="12" viewBox="0 0 97 12" fill="none" xmlns="http://www.w3.org/2000/svg">
<path d="M70.48 5.3524C68.8 5.9024 67.12 6.4224 65.46 7.0224C65.15 7.1324 64.92 7.5524 64.72 7.8724C62.81 10.8724 58.58 11.9424 55.56 10.0724C54.88 9.6524 54.26 8.9524 53.91 8.2324C53.69 7.7824 54.03 7.0624 54.12 6.4724C54.85 6.6024 55.58 6.7024 56.29 6.8724C56.43 6.9024 56.52 7.2424 56.58 7.4524C57.05 9.1024 57.94 10.2424 59.82 10.2524C61.65 10.2624 63.34 9.0924 64.08 7.2624C62.58 7.1024 61.06 7.1324 59.64 6.7524C57.3 6.1224 55 5.2924 52.75 4.3924C51.93 4.0624 51.49 4.0924 50.97 4.7724C49.52 6.6824 48.53 8.7824 48.32 11.3824C47.22 10.4724 46.26 9.6624 45.22 8.8024C42.84 10.8724 40.17 12.1124 37.02 11.6524C33.75 11.1724 31.72 9.3124 31.35 5.4624C29.6 6.4724 28.06 7.3624 26.34 8.3624C26.01 8.2824 25.35 8.1224 24.6 7.9424C26.19 6.2024 28.2 5.4024 30.39 4.8624C30.99 4.7124 31.65 4.2824 31.99 3.7824C33.85 1.0324 37.81 -0.117599 40.74 1.4624C41.55 1.9024 42.26 2.6924 42.74 3.4924C42.99 3.8924 42.64 4.6624 42.56 5.2724C41.83 5.1324 41.09 5.0324 40.38 4.8224C40.21 4.7724 40.13 4.3824 40.04 4.1324C39.36 2.2924 38.44 1.4924 36.95 1.4724C35.05 1.4424 33.28 2.6524 32.59 4.5724C36.97 4.5024 41.05 5.5124 44.85 7.8224C46.9 5.7824 48.02 3.3524 48.36 0.362401C49.16 1.0524 49.9 1.6524 50.6 2.3024C51.19 2.8524 51.62 2.8624 52.28 2.3024C54.21 0.642401 56.5 -0.107599 59.06 0.0124007C62.48 0.172401 64.4 1.9424 65.33 5.8724C67.16 5.6024 68.61 4.6724 69.81 3.3324C70.54 3.4724 71.25 3.6024 72.34 3.8124C71.6 4.4224 71.01 4.9224 70.41 5.4124C70.44 5.3924 70.48 5.3524 70.48 5.3524ZM52.3 3.4024C55.95 5.5724 59.62 6.5024 63.59 6.2324C64.34 6.1824 64.48 5.7924 64.33 5.1624C63.94 3.4024 62.84 2.1824 61.16 1.7224C58.08 0.872401 55.21 1.5424 52.3 3.4024ZM44.21 8.1924C40.41 6.1124 36.57 4.9724 32.25 5.6624C32.43 7.7124 33.38 9.0224 35.03 9.8024C37.51 10.9624 41.97 10.2224 44.21 8.1924ZM47.39 9.8424C48.55 7.6624 49.67 5.5224 50.87 3.2624C50.4 2.8624 49.79 2.3424 49.29 1.9024C48.1 4.1324 46.96 6.2524 45.79 8.4424C46.29 8.8924 46.89 9.4024 47.39 9.8424Z" fill="#F6F6F6"/>
<path d="M70.44 5.39232C75.46 5.41232 80.49 5.52232 85.5 5.39232C86.72 5.36232 87.91 4.50232 89.29 3.95232C89.2 3.85232 89.37 4.03232 89.53 4.23232C90.34 5.27232 91.82 5.61232 93 5.00232C94.42 4.27232 95.66 4.74232 96.97 5.94232C96.06 6.20232 95.15 6.69232 94.25 6.68232C93.02 6.66232 91.8 6.26232 90.52 6.01232C90.03 6.58232 89.54 7.15232 89.03 7.75232C87.89 6.41232 86.46 6.03232 84.74 6.06232C79.91 6.14232 75.08 6.09232 70.2 6.09232C70.31 5.80232 70.39 5.58232 70.48 5.35232L70.44 5.39232Z" fill="#F6F6F6"/>
<path d="M8.08 7.78235C6.71 5.98235 6.03 5.80235 3.96 6.56235C2.59 7.07235 1.37 6.71235 0 5.60235C1.01 5.24235 1.83 4.71235 2.63 4.73235C3.95 4.76235 5.26 5.15235 6.69 5.42235C7.14 4.89235 7.62 4.32235 8.18 3.66235C9.47 5.34235 11.29 5.44235 13.22 5.40235C17.53 5.33235 21.85 5.35235 26.16 5.35235C26.41 5.35235 26.67 5.40235 26.96 5.69235C26.52 5.78235 26.09 5.94235 25.65 5.94235C21.56 5.95235 17.46 5.95235 13.37 5.92235C10.86 5.90235 9.99 6.18235 8.08 7.78235Z" fill="#F6F6F6"/>
</svg>
