<svg width="102" height="30" viewBox="0 0 102 30" fill="none" xmlns="http://www.w3.org/2000/svg">
<path d="M9.19 16.6799C10.83 13.2899 15.68 12.5699 18.8 15.2499C19.35 15.7299 19.87 16.2399 20.48 16.8199C21.3 14.4299 22.98 12.8699 25.44 12.1699C28.31 11.3599 31.11 12.8399 31.91 15.5899C32.8 18.6699 31.36 21.7499 28.64 22.6099C27.27 23.0399 26.05 22.7399 25.87 21.9299C25.66 20.9999 26.6 20.1099 28.01 19.8799C30.24 19.5299 31.37 18.5499 31.42 16.9199C31.47 14.9599 29.96 12.9899 28 12.5899C26.05 12.1999 24.34 12.6899 22.99 14.2099C21.66 15.6999 21.42 17.3999 22.1 19.2399C23.33 22.5899 28.06 25.3399 31.58 24.8099C32.16 24.7199 32.76 24.7399 33.26 24.7199C33.2 23.9099 33.14 23.1499 33.08 22.3799C33.19 22.3299 33.3 22.2899 33.4 22.2399C34.96 25.0199 37.57 25.1299 40.24 25.0099C40.58 24.9899 40.96 24.7099 41.23 24.4499C42 23.7299 42.71 23.7599 43.58 24.3399C44.12 24.7099 44.85 24.9999 45.49 24.9899C47.54 24.9599 49.48 25.1299 50.94 27.0599C52.43 25.0999 54.48 24.9099 56.66 24.9899C57.21 25.0099 57.75 24.5199 58.33 24.3899C58.98 24.2399 59.86 23.9499 60.31 24.2299C62.75 25.7699 66.56 25.0699 68.19 22.6499C68.26 22.5399 68.35 22.4399 68.76 22.3599C68.73 23.0999 68.69 23.8499 68.65 24.6499C72.6 25.4899 75.96 24.1799 78.62 21.1299C80.05 19.4899 80.73 17.5199 79.69 15.3599C78.73 13.3799 77.06 12.4499 74.89 12.4399C73.11 12.4299 71.8 13.2799 70.97 14.8299C69.71 17.1899 70.75 19.2799 73.37 19.8099C74.11 19.9599 74.89 20.2199 75.48 20.6499C75.82 20.8999 76.03 21.6599 75.91 22.0799C75.82 22.3999 75.14 22.6899 74.69 22.7299C74.12 22.7899 73.48 22.6799 72.94 22.4699C70.34 21.4799 69.01 18.1099 70.04 15.2599C71.02 12.5599 73.91 11.2299 76.71 12.1999C78.9 12.9599 79.94 13.9599 81.49 16.8499C81.98 16.3299 82.41 15.7999 82.91 15.3599C84.92 13.5699 87.25 13.1199 89.74 14.0299C92.02 14.8599 93.42 16.6099 93.45 19.0399C93.47 20.2399 93.01 21.5699 92.4 22.6299C91.75 23.7599 90.33 23.8499 89.21 23.1699C88.12 22.5099 87.86 21.5099 88.41 20.1699C88.53 19.8699 88.69 19.5799 88.77 19.2699C89.07 18.1299 88.63 17.5999 87.43 17.6199C88.35 16.8099 89.46 16.9299 90.1 18.0199C90.43 18.5899 90.42 19.3699 90.73 19.9599C91.02 20.4999 91.54 20.9099 91.96 21.3799C92.35 20.8799 93 20.4299 93.1 19.8699C93.6 17.0299 91.03 14.3699 88.12 14.6399C85.84 14.8499 84.18 16.1099 82.87 17.8799C82.41 18.4999 81.99 19.1899 81.71 19.9199C80.83 22.1799 79.38 23.8699 76.73 24.9299C77.44 25.0099 77.76 25.0799 78.08 25.0799C81.59 25.0899 85.1 25.0399 88.6 25.1099C90.37 25.1399 91.88 24.7499 93.08 23.2599C93.27 23.4599 93.43 23.5999 93.55 23.7699C94.5 25.0299 95.97 25.3999 97.4 24.7299C98.97 23.9999 100.31 24.4699 101.71 25.4999C100.25 26.5899 98.89 26.9599 97.24 26.2499C96.51 25.9399 95.61 26.0499 94.62 25.9499C94.22 26.4399 93.72 27.0399 93.13 27.7599C91.49 25.6599 89.13 25.7099 86.77 25.7299C82.06 25.7599 77.36 25.6999 72.65 25.7699C71.27 25.7899 69.89 26.1599 68.57 26.3599C68.64 27.0599 68.72 27.8299 68.8 28.6099C68.7 28.6699 68.6 28.7199 68.51 28.7799C67.03 26.2499 64.63 25.8599 62.09 25.9199C61.57 25.9299 61 26.2299 60.56 26.5499C59.76 27.1499 59.04 27.1299 58.3 26.5199C56.71 25.2099 54.54 25.7099 53.86 27.6499C53.37 29.0399 52.61 29.4999 51.25 28.9499C51.21 28.9299 51.15 28.8799 51.13 28.8999C49.08 29.7599 48.35 28.5699 47.61 26.9099C47.04 25.6299 44.71 25.4599 43.64 26.4399C42.96 27.0699 42.13 27.3199 41.56 26.6599C40.78 25.7599 39.86 25.8499 38.93 25.8999C36.71 26.0299 34.61 26.4699 33.12 28.6999C33.16 27.9299 33.21 27.1499 33.26 26.2799C26.5 25.2799 19.53 25.8199 12.59 25.8199C11.27 25.8199 9.94 26.7899 8.62 27.3199C8.65 27.4499 8.69 27.5799 8.72 27.6999C8.22 27.1099 7.73 26.5199 7.16 25.8499C5.88 26.1099 4.6 26.5399 3.31 26.5699C2.28 26.5899 1.25 26.1199 0 25.8199C1.79 24.1999 2.94 24.0399 4.77 24.9099C5.88 25.4399 7.59 24.7699 8.77 23.1799C10.37 25.5499 12.82 25.0599 15.14 25.0699C18.35 25.0799 21.55 25.0699 24.83 24.9299C22.15 23.8199 20.87 21.5999 19.79 19.1499C19.02 17.4199 17.72 16.0999 16 15.2599C13.48 14.0399 11.6 14.4699 9.32 16.7399C9.27 16.7499 9.23 16.7199 9.19 16.6799Z" fill="#F6F6F6"/>
<path d="M48.57 16.6999C48.98 15.8999 49.43 15.1099 49.79 14.2899C49.89 14.0599 49.87 13.6799 49.75 13.4499C48.75 11.5599 48.8 11.2399 50.44 9.92991L50.42 9.96991C50.69 9.98991 50.96 9.99991 51.22 10.0199L51.21 10.0099C51.46 9.69991 51.74 9.41991 51.94 9.07991C53.83 5.95991 56.52 4.26991 60.23 4.32991C61.87 4.35991 62.43 5.18991 61.95 6.36991C62.57 7.36991 63.1 8.15991 63.57 8.97991C64.24 10.1599 64.87 11.3599 65.53 12.5699C65.16 12.3099 64.67 11.9999 64.22 11.6599C62.91 10.6499 61.68 9.50991 60.29 8.63991C57.98 7.17991 55.31 7.00991 53.1 8.80991C52.37 9.39991 51.96 9.90991 52.65 10.8599C53.24 11.6699 53.02 12.5599 52.16 13.8199C54.05 17.0699 54.32 20.4899 52.73 23.9499C52.38 24.7099 51.57 25.2699 50.98 25.9199C50.44 25.2699 49.75 24.6899 49.37 23.9599C48.18 21.6499 48.22 19.1699 48.61 16.6699C48.61 16.6499 48.57 16.6999 48.57 16.6999ZM51.02 22.0099C52.85 20.2299 53.25 16.3099 51.77 14.4099C51.56 14.1399 50.45 14.0999 50.25 14.3499C48.81 16.1599 49.24 20.1399 51.02 22.0099Z" fill="#F6F6F6"/>
<path d="M60.07 20.02C61.62 19.19 62.15 17.86 62.11 16.16C61.42 16.98 60.87 17.82 60.14 18.46C58.51 19.88 56.36 19.89 54.98 18.6C53.5 17.22 53.15 14.47 54.3 12.88C54.59 12.48 54.97 12.02 55.4 11.88C55.97 11.7 56.99 11.57 57.18 11.85C57.71 12.62 57.21 13.29 56.4 13.71C54.29 14.78 53.8 15.88 54.69 17.45C55.64 19.15 57.81 19.65 59.48 18.54C60.83 17.64 61.48 16.33 61.24 14.74C60.7 11.2 59.14 9.77001 56.15 8.98001C55.27 8.75001 54.21 9.17001 53.41 9.27001C54.05 8.53001 56.73 8.01001 57.95 8.64001C59.42 9.40001 60.88 10.19 61.73 11.74C62.06 12.34 62.52 12.87 62.98 13.39C65.45 16.23 68 16.03 70.01 12.85C69.91 15.57 66.53 16.79 62.84 15.54C63.37 16.25 63.81 17.05 64.48 17.6C64.7 17.78 65.48 17.28 66.34 16.97C66.17 17.71 66.22 18.67 65.77 19.08C65.26 19.55 64.3 19.54 63.4 19.77C62.83 23.58 62.83 23.58 62.01 23.73C62.41 22.49 62.85 21.1 63.37 19.51C62.07 19.93 61.19 20.21 60.3 20.49C60.22 20.33 60.14 20.18 60.07 20.02Z" fill="#F6F6F6"/>
<path d="M42.72 18.7099C41.89 17.9199 41.06 17.1299 40.25 16.3599C40.13 17.8499 40.67 19.1399 42.2 19.9799C42.14 20.1199 42.07 20.2599 42.01 20.3999C41.18 20.1799 40.35 19.9599 39.53 19.7399C39.06 21.3899 39.37 22.4899 40.71 23.5799C39.62 23.9499 39.39 23.4399 38.9 19.7299C38.04 19.5099 37.1 19.5199 36.58 19.0599C36.13 18.6599 36.14 17.7199 35.87 16.6999C37.95 18.0699 38.53 17.7699 39.39 15.2099C37.69 16.0999 35.98 16.4999 34.35 15.5099C33.47 14.9799 32.81 14.0999 32.05 13.3799C32.16 13.2699 32.27 13.1599 32.38 13.0599C32.61 13.3499 32.83 13.6499 33.08 13.9199C34.67 15.6599 36.54 15.8999 38.3 14.3099C39.65 13.0899 40.66 11.4999 41.96 10.2199C43.62 8.57992 45.57 7.69992 47.97 8.76992C45.13 9.01992 42.62 9.66992 41.53 12.7699C40.73 15.0399 40.94 16.9899 42.77 18.6599L42.72 18.7099Z" fill="#F6F6F6"/>
<path d="M51.23 10.01C50.57 8.81 50.01 7.53 49.21 6.43C48.43 5.36 47.4 4.46 46.53 3.25C49.25 3.71 50 1.64 51.13 0C52.38 1.44 52.83 3.81 55.58 3.01C55.6 3.15 55.62 3.29 55.64 3.43C54.93 4.21 54.25 5.01 53.51 5.77C52.34 6.97 51.17 8.15 51.22 10L51.23 10.01Z" fill="#F6F6F6"/>
<path d="M50.44 9.92996C47.73 6.77996 44.17 6.76996 40.74 9.11996C39.65 9.86996 38.72 10.86 37.7 11.71C37.3 12.05 36.84 12.31 36.61 12.47C37.31 11.09 38.01 9.57996 38.84 8.12996C39.17 7.55996 39.75 7.12996 40.36 6.49996C39.99 4.90996 40.33 4.47996 42.4 4.33996C45.92 4.09996 49.48 6.58996 50.43 9.96996L50.44 9.92996Z" fill="#F6F6F6"/>
<path d="M9.30998 16.7899C9.10998 17.8599 8.78998 18.9399 8.78998 20.0099C8.78998 20.4699 9.46998 20.9399 9.84998 21.3999C10.29 20.9499 10.84 20.5699 11.13 20.0399C11.45 19.4599 11.41 18.6799 11.73 18.0999C12.35 16.9999 13.44 16.8499 14.44 17.5899C13.08 17.7099 12.66 18.4399 13.27 19.7999C13.75 20.8799 14.05 21.9099 13.11 22.8599C11.96 24.0299 10.18 23.8099 9.15998 22.3899C8.04998 20.8599 8.06998 18.4099 9.18998 16.6799C9.22998 16.7199 9.26998 16.7499 9.30998 16.7899Z" fill="#F6F6F6"/>
<path d="M42.77 18.6599C45.28 19.4199 46.77 19.0099 47.66 17.3299C48.39 15.9399 47.98 14.5999 46.59 13.8499C46.47 13.7799 46.32 13.7399 46.23 13.6499C45.81 13.2199 45.37 12.7899 45.02 12.3099C44.96 12.2199 45.35 11.6199 45.46 11.6399C46.06 11.7499 46.74 11.8499 47.19 12.2099C48.64 13.3699 48.71 15.0299 48.57 16.7299L48.61 16.6799C48.04 17.4299 47.58 18.3399 46.87 18.9099C45.63 19.9099 44.02 19.7499 42.72 18.7399C42.72 18.7099 42.77 18.6599 42.77 18.6599Z" fill="#F6F6F6"/>
<path d="M35.89 13.15C34.39 13.05 34.09 12.61 34.09 10.99C34.09 10.49 33.83 9.99002 33.69 9.49002C33.22 9.64002 32.76 9.79002 32.27 9.95002C32.46 9.08002 33.02 8.28002 34.02 8.12002C34.58 8.03002 35.54 8.33002 35.77 8.75002C36.07 9.30002 36.04 10.24 35.77 10.84C35.38 11.68 34.8 12.37 35.89 13.15Z" fill="#F6F6F6"/>
<path d="M69.93 9.66001C68.43 9.31001 68.21 9.48001 68.22 10.9C68.24 12.69 67.92 13.11 66.87 13.15C66.83 12.48 66.99 11.75 66.72 11.25C65.94 9.80001 65.9 9.02001 66.84 8.38001C67.91 7.67001 68.9 8.05001 69.93 9.66001Z" fill="#F6F6F6"/>
</svg>
